<?xml version="1.0" encoding="UTF-8" standalone="no"?>
<!-- Created with Inkscape (http://www.inkscape.org/) -->

<svg
   xmlns:dc="http://purl.org/dc/elements/1.1/"
   xmlns:cc="http://creativecommons.org/ns#"
   xmlns:rdf="http://www.w3.org/1999/02/22-rdf-syntax-ns#"
   xmlns:svg="http://www.w3.org/2000/svg"
   xmlns="http://www.w3.org/2000/svg"
   xmlns:xlink="http://www.w3.org/1999/xlink"
   xmlns:sodipodi="http://sodipodi.sourceforge.net/DTD/sodipodi-0.dtd"
   xmlns:inkscape="http://www.inkscape.org/namespaces/inkscape"
   width="128"
   height="128"
   id="svg3935"
   version="1.1"
   inkscape:version="0.48.1 r9760"
   sodipodi:docname="ojuba-mimic.svg">
  <defs
     id="defs3937">
    <linearGradient
       id="linearGradient3937">
      <stop
         style="stop-color:#ed8700;stop-opacity:1;"
         offset="0"
         id="stop3939" />
      <stop
         style="stop-color:#edd400;stop-opacity:0;"
         offset="1"
         id="stop3941" />
    </linearGradient>
    <radialGradient
       gradientUnits="userSpaceOnUse"
       gradientTransform="matrix(-0.01290127,1.685197,1.713082,0.01311475,-20.502645,-38.118088)"
       r="19.0625"
       fy="11.132236"
       fx="16.563837"
       cy="11.132236"
       cx="16.563837"
       id="radialGradient4997"
       xlink:href="#linearGradient4991"
       inkscape:collect="always" />
    <radialGradient
       gradientUnits="userSpaceOnUse"
       gradientTransform="matrix(1,0,0,0.536723,0,16.87306)"
       r="15.644737"
       fy="36.421127"
       fx="24.837126"
       cy="36.421127"
       cx="24.837126"
       id="radialGradient8668"
       xlink:href="#linearGradient8662"
       inkscape:collect="always" />
    <linearGradient
       id="linearGradient8662"
       inkscape:collect="always">
      <stop
         id="stop8664"
         offset="0"
         style="stop-color:#000000;stop-opacity:1;" />
      <stop
         id="stop8666"
         offset="1"
         style="stop-color:#000000;stop-opacity:0;" />
    </linearGradient>
    <linearGradient
       id="linearGradient4991"
       inkscape:collect="always">
      <stop
         id="stop4993"
         offset="0"
         style="stop-color:#ffffff;stop-opacity:1;" />
      <stop
         id="stop4995"
         offset="1"
         style="stop-color:#ffffff;stop-opacity:0;" />
    </linearGradient>
    <inkscape:perspective
       id="perspective31"
       inkscape:persp3d-origin="24 : 16 : 1"
       inkscape:vp_z="48 : 24 : 1"
       inkscape:vp_y="0 : 1000 : 0"
       inkscape:vp_x="0 : 24 : 1"
       sodipodi:type="inkscape:persp3d" />
    <radialGradient
       gradientUnits="userSpaceOnUse"
       gradientTransform="matrix(2.496031,0,0,2.300689,-23.515661,38.829615)"
       r="10.16466"
       fy="13.282721"
       fx="15.09403"
       cy="13.282721"
       cx="15.09403"
       id="radialGradient2332"
       xlink:href="#linearGradient2326"
       inkscape:collect="always" />
    <linearGradient
       y2="12.583769"
       x2="12.624337"
       y1="11.39502"
       x1="17.060806"
       gradientTransform="matrix(0,-1.171926,-1.171926,0,46.1744,54.10111)"
       gradientUnits="userSpaceOnUse"
       id="linearGradient1764-1"
       xlink:href="#linearGradient2187-7"
       inkscape:collect="always" />
    <linearGradient
       inkscape:collect="always"
       id="linearGradient2187-7">
      <stop
         style="stop-color:#ffffff;stop-opacity:1;"
         offset="0"
         id="stop2189-3" />
      <stop
         style="stop-color:#ffffff;stop-opacity:0;"
         offset="1"
         id="stop2191-7" />
    </linearGradient>
    <radialGradient
       gradientUnits="userSpaceOnUse"
       gradientTransform="matrix(1,0,0,0.536723,0,16.87306)"
       r="15.644737"
       fy="36.421127"
       fx="24.837126"
       cy="36.421127"
       cx="24.837126"
       id="radialGradient8668-7"
       xlink:href="#linearGradient8662-8"
       inkscape:collect="always" />
    <linearGradient
       id="linearGradient8662-8"
       inkscape:collect="always">
      <stop
         id="stop8664-9"
         offset="0"
         style="stop-color:#000000;stop-opacity:1;" />
      <stop
         id="stop8666-6"
         offset="1"
         style="stop-color:#000000;stop-opacity:0;" />
    </linearGradient>
    <linearGradient
       id="linearGradient2308">
      <stop
         id="stop2310"
         offset="0"
         style="stop-color:#edd400;stop-opacity:1;" />
      <stop
         id="stop2312"
         offset="1"
         style="stop-color:#edd400;stop-opacity:0;" />
    </linearGradient>
    <linearGradient
       id="linearGradient2326"
       inkscape:collect="always">
      <stop
         id="stop2328"
         offset="0"
         style="stop-color:#ffffff;stop-opacity:1;" />
      <stop
         id="stop2330"
         offset="1"
         style="stop-color:#ffffff;stop-opacity:0;" />
    </linearGradient>
    <inkscape:perspective
       id="perspective31-4"
       inkscape:persp3d-origin="24 : 16 : 1"
       inkscape:vp_z="48 : 24 : 1"
       inkscape:vp_y="0 : 1000 : 0"
       inkscape:vp_x="0 : 24 : 1"
       sodipodi:type="inkscape:persp3d" />
  </defs>
  <sodipodi:namedview
     id="base"
     pagecolor="#ffffff"
     bordercolor="#666666"
     borderopacity="1.0"
     inkscape:pageopacity="0.0"
     inkscape:pageshadow="2"
     inkscape:zoom="3.5773192"
     inkscape:cx="64.999394"
     inkscape:cy="63.988148"
     inkscape:document-units="px"
     inkscape:current-layer="layer1"
     showgrid="false"
     showguides="true"
     inkscape:guide-bbox="true"
     inkscape:window-width="1366"
     inkscape:window-height="693"
     inkscape:window-x="0"
     inkscape:window-y="25"
     inkscape:window-maximized="1" />
  <metadata
     id="metadata3940">
    <rdf:RDF>
      <cc:Work
         rdf:about="">
        <dc:format>image/svg+xml</dc:format>
        <dc:type
           rdf:resource="http://purl.org/dc/dcmitype/StillImage" />
        <dc:title />
      </cc:Work>
    </rdf:RDF>
  </metadata>
  <g
     inkscape:label="Layer 1"
     inkscape:groupmode="layer"
     id="layer1"
     transform="translate(0,-924.3621)">
    <path
       transform="matrix(0.94806636,-0.31807259,0,1,0,0)"
       style="fill:#ff6600;fill-opacity:1;stroke:none"
       inkscape:transform-center-x="-4.3545588"
       inkscape:transform-center-y="6.8781369"
       d="M 8.2675694,949.15168 C 74.408123,967.49074 48.334155,938.51766 128.7133,968.78837 l 0.40359,103.43253 c -52.226747,-18.0874 -35.412992,6.5413 -120.9281257,-20.0233 z"
       id="rect4138"
       inkscape:connector-curvature="0"
       sodipodi:nodetypes="ccccc" />
    <g
       id="g4047"
       transform="matrix(1.6416299,0,0,1.6416299,203.93184,-638.57354)">
      <g
         transform="translate(-57.560753,2.1318797)"
         id="g4035">
        <path
           transform="matrix(0.81001981,0,0,1.1831198,29.099128,919.59911)"
           d="m -77.25526,58.104801 c 0,4.625519 -5.476869,8.375242 -12.23293,8.375242 -6.75606,0 -12.23293,-3.749723 -12.23293,-8.375242 0,-4.625518 5.47687,-8.375242 12.23293,-8.375242 6.756061,0 12.23293,3.749724 12.23293,8.375242 z"
           sodipodi:ry="8.3752422"
           sodipodi:rx="12.232929"
           sodipodi:cy="58.104801"
           sodipodi:cx="-89.48819"
           id="path4005"
           style="fill:#333333;fill-opacity:1;stroke:none"
           sodipodi:type="arc" />
        <path
           sodipodi:type="arc"
           style="fill:#1a1a1a;fill-opacity:1;stroke:none"
           id="path4007"
           sodipodi:cx="-89.48819"
           sodipodi:cy="58.104801"
           sodipodi:rx="12.232929"
           sodipodi:ry="8.3752422"
           d="m -77.25526,58.104801 c 0,4.625519 -5.476869,8.375242 -12.23293,8.375242 -6.75606,0 -12.23293,-3.749723 -12.23293,-8.375242 0,-4.625518 5.47687,-8.375242 12.23293,-8.375242 6.756061,0 12.23293,3.749724 12.23293,8.375242 z"
           transform="matrix(0.34528953,0,0,0.50433196,-12.488744,959.03994)" />
        <path
           transform="matrix(0.16271692,0,0,0.23766531,-28.826836,967.5298)"
           d="m -77.25526,58.104801 c 0,4.625519 -5.476869,8.375242 -12.23293,8.375242 -6.75606,0 -12.23293,-3.749723 -12.23293,-8.375242 0,-4.625518 5.47687,-8.375242 12.23293,-8.375242 6.756061,0 12.23293,3.749724 12.23293,8.375242 z"
           sodipodi:ry="8.3752422"
           sodipodi:rx="12.232929"
           sodipodi:cy="58.104801"
           sodipodi:cx="-89.48819"
           id="path4009"
           style="fill:#666666;fill-opacity:1;stroke:none"
           sodipodi:type="arc" />
        <path
           sodipodi:type="arc"
           style="fill:#666666;fill-opacity:1;stroke:none"
           id="path4011"
           sodipodi:cx="-89.48819"
           sodipodi:cy="58.104801"
           sodipodi:rx="12.232929"
           sodipodi:ry="8.3752422"
           d="m -77.25526,58.104801 c 0,4.625519 -5.476869,8.375242 -12.23293,8.375242 -6.75606,0 -12.23293,-3.749723 -12.23293,-8.375242 0,-4.625518 5.47687,-8.375242 12.23293,-8.375242 6.756061,0 12.23293,3.749724 12.23293,8.375242 z"
           transform="matrix(0.16271692,0,0,0.23766531,-21.923606,974.23)" />
        <path
           sodipodi:type="arc"
           style="fill:#666666;fill-opacity:1;stroke:none"
           id="path4013"
           sodipodi:cx="-89.48819"
           sodipodi:cy="58.104801"
           sodipodi:rx="12.232929"
           sodipodi:ry="8.3752422"
           d="m -77.25526,58.104801 c 0,4.625519 -5.476869,8.375242 -12.23293,8.375242 -6.75606,0 -12.23293,-3.749723 -12.23293,-8.375242 0,-4.625518 5.47687,-8.375242 12.23293,-8.375242 6.756061,0 12.23293,3.749724 12.23293,8.375242 z"
           transform="matrix(0.16271692,0,0,0.23766531,-35.831584,974.43303)" />
        <path
           transform="matrix(0.16271692,0,0,0.23766531,-28.928354,981.13323)"
           d="m -77.25526,58.104801 c 0,4.625519 -5.476869,8.375242 -12.23293,8.375242 -6.75606,0 -12.23293,-3.749723 -12.23293,-8.375242 0,-4.625518 5.47687,-8.375242 12.23293,-8.375242 6.756061,0 12.23293,3.749724 12.23293,8.375242 z"
           sodipodi:ry="8.3752422"
           sodipodi:rx="12.232929"
           sodipodi:cy="58.104801"
           sodipodi:cx="-89.48819"
           id="path4015"
           style="fill:#666666;fill-opacity:1;stroke:none"
           sodipodi:type="arc" />
        <path
           inkscape:transform-center-y="-4.8454286"
           inkscape:transform-center-x="4.7736486"
           sodipodi:type="arc"
           style="fill:#666666;fill-opacity:1;stroke:none"
           id="path4017"
           sodipodi:cx="-89.48819"
           sodipodi:cy="58.104801"
           sodipodi:rx="12.232929"
           sodipodi:ry="8.3752422"
           d="m -77.25526,58.104801 c 0,4.625519 -5.476869,8.375242 -12.23293,8.375242 -6.75606,0 -12.23293,-3.749723 -12.23293,-8.375242 0,-4.625518 5.47687,-8.375242 12.23293,-8.375242 6.756061,0 12.23293,3.749724 12.23293,8.375242 z"
           transform="matrix(0.11505824,-0.11505824,0.16805475,0.16805475,-47.787187,963.13956)" />
        <path
           inkscape:transform-center-y="-4.9889986"
           inkscape:transform-center-x="-4.8454314"
           transform="matrix(0.11505824,-0.11505824,0.16805475,0.16805475,-38.168105,962.99599)"
           d="m -77.25526,58.104801 c 0,4.625519 -5.476869,8.375242 -12.23293,8.375242 -6.75606,0 -12.23293,-3.749723 -12.23293,-8.375242 0,-4.625518 5.47687,-8.375242 12.23293,-8.375242 6.756061,0 12.23293,3.749724 12.23293,8.375242 z"
           sodipodi:ry="8.3752422"
           sodipodi:rx="12.232929"
           sodipodi:cy="58.104801"
           sodipodi:cx="-89.48819"
           id="path4019"
           style="fill:#666666;fill-opacity:1;stroke:none"
           sodipodi:type="arc" />
        <path
           inkscape:transform-center-y="4.9889914"
           inkscape:transform-center-x="4.8454286"
           transform="matrix(0.11505824,-0.11505824,0.16805475,0.16805475,-47.858967,972.97398)"
           d="m -77.25526,58.104801 c 0,4.625519 -5.476869,8.375242 -12.23293,8.375242 -6.75606,0 -12.23293,-3.749723 -12.23293,-8.375242 0,-4.625518 5.47687,-8.375242 12.23293,-8.375242 6.756061,0 12.23293,3.749724 12.23293,8.375242 z"
           sodipodi:ry="8.3752422"
           sodipodi:rx="12.232929"
           sodipodi:cy="58.104801"
           sodipodi:cx="-89.48819"
           id="path4021"
           style="fill:#666666;fill-opacity:1;stroke:none"
           sodipodi:type="arc" />
        <path
           inkscape:transform-center-y="4.8454314"
           inkscape:transform-center-x="-4.7736514"
           sodipodi:type="arc"
           style="fill:#666666;fill-opacity:1;stroke:none"
           id="path4023"
           sodipodi:cx="-89.48819"
           sodipodi:cy="58.104801"
           sodipodi:rx="12.232929"
           sodipodi:ry="8.3752422"
           d="m -77.25526,58.104801 c 0,4.625519 -5.476869,8.375242 -12.23293,8.375242 -6.75606,0 -12.23293,-3.749723 -12.23293,-8.375242 0,-4.625518 5.47687,-8.375242 12.23293,-8.375242 6.756061,0 12.23293,3.749724 12.23293,8.375242 z"
           transform="matrix(0.11505824,-0.11505824,0.16805475,0.16805475,-38.239885,972.83042)" />
      </g>
      <g
         transform="translate(12.080652,4.3652775)"
         id="g3991">
        <path
           sodipodi:type="arc"
           style="fill:#666666;fill-opacity:1;stroke:none"
           id="path3971"
           sodipodi:cx="-89.48819"
           sodipodi:cy="58.104801"
           sodipodi:rx="12.232929"
           sodipodi:ry="8.3752422"
           d="m -77.25526,58.104801 c 0,4.625519 -5.476869,8.375242 -12.23293,8.375242 -6.75606,0 -12.23293,-3.749723 -12.23293,-8.375242 0,-4.625518 5.47687,-8.375242 12.23293,-8.375242 6.756061,0 12.23293,3.749724 12.23293,8.375242 z"
           transform="matrix(0.81001981,0,0,1.1831198,-29.476805,912.59436)" />
        <path
           transform="matrix(0.34528953,0,0,0.50433196,-71.064677,952.03519)"
           d="m -77.25526,58.104801 c 0,4.625519 -5.476869,8.375242 -12.23293,8.375242 -6.75606,0 -12.23293,-3.749723 -12.23293,-8.375242 0,-4.625518 5.47687,-8.375242 12.23293,-8.375242 6.756061,0 12.23293,3.749724 12.23293,8.375242 z"
           sodipodi:ry="8.3752422"
           sodipodi:rx="12.232929"
           sodipodi:cy="58.104801"
           sodipodi:cx="-89.48819"
           id="path3973"
           style="fill:#1a1a1a;fill-opacity:1;stroke:none"
           sodipodi:type="arc" />
        <path
           sodipodi:type="arc"
           style="fill:#999999;fill-opacity:1;stroke:none"
           id="path3975"
           sodipodi:cx="-89.48819"
           sodipodi:cy="58.104801"
           sodipodi:rx="12.232929"
           sodipodi:ry="8.3752422"
           d="m -77.25526,58.104801 c 0,4.625519 -5.476869,8.375242 -12.23293,8.375242 -6.75606,0 -12.23293,-3.749723 -12.23293,-8.375242 0,-4.625518 5.47687,-8.375242 12.23293,-8.375242 6.756061,0 12.23293,3.749724 12.23293,8.375242 z"
           transform="matrix(0.16271692,0,0,0.23766531,-87.402769,960.52505)" />
        <path
           transform="matrix(0.16271692,0,0,0.23766531,-80.499539,967.22525)"
           d="m -77.25526,58.104801 c 0,4.625519 -5.476869,8.375242 -12.23293,8.375242 -6.75606,0 -12.23293,-3.749723 -12.23293,-8.375242 0,-4.625518 5.47687,-8.375242 12.23293,-8.375242 6.756061,0 12.23293,3.749724 12.23293,8.375242 z"
           sodipodi:ry="8.3752422"
           sodipodi:rx="12.232929"
           sodipodi:cy="58.104801"
           sodipodi:cx="-89.48819"
           id="path3977"
           style="fill:#999999;fill-opacity:1;stroke:none"
           sodipodi:type="arc" />
        <path
           transform="matrix(0.16271692,0,0,0.23766531,-94.407517,967.42828)"
           d="m -77.25526,58.104801 c 0,4.625519 -5.476869,8.375242 -12.23293,8.375242 -6.75606,0 -12.23293,-3.749723 -12.23293,-8.375242 0,-4.625518 5.47687,-8.375242 12.23293,-8.375242 6.756061,0 12.23293,3.749724 12.23293,8.375242 z"
           sodipodi:ry="8.3752422"
           sodipodi:rx="12.232929"
           sodipodi:cy="58.104801"
           sodipodi:cx="-89.48819"
           id="path3979"
           style="fill:#999999;fill-opacity:1;stroke:none"
           sodipodi:type="arc" />
        <path
           sodipodi:type="arc"
           style="fill:#999999;fill-opacity:1;stroke:none"
           id="path3981"
           sodipodi:cx="-89.48819"
           sodipodi:cy="58.104801"
           sodipodi:rx="12.232929"
           sodipodi:ry="8.3752422"
           d="m -77.25526,58.104801 c 0,4.625519 -5.476869,8.375242 -12.23293,8.375242 -6.75606,0 -12.23293,-3.749723 -12.23293,-8.375242 0,-4.625518 5.47687,-8.375242 12.23293,-8.375242 6.756061,0 12.23293,3.749724 12.23293,8.375242 z"
           transform="matrix(0.16271692,0,0,0.23766531,-87.504287,974.12848)" />
        <path
           transform="matrix(0.11505824,-0.11505824,0.16805475,0.16805475,-106.36312,956.13481)"
           d="m -77.25526,58.104801 c 0,4.625519 -5.476869,8.375242 -12.23293,8.375242 -6.75606,0 -12.23293,-3.749723 -12.23293,-8.375242 0,-4.625518 5.47687,-8.375242 12.23293,-8.375242 6.756061,0 12.23293,3.749724 12.23293,8.375242 z"
           sodipodi:ry="8.3752422"
           sodipodi:rx="12.232929"
           sodipodi:cy="58.104801"
           sodipodi:cx="-89.48819"
           id="path3983"
           style="fill:#999999;fill-opacity:1;stroke:none"
           sodipodi:type="arc"
           inkscape:transform-center-x="4.7736486"
           inkscape:transform-center-y="-4.8454286" />
        <path
           sodipodi:type="arc"
           style="fill:#999999;fill-opacity:1;stroke:none"
           id="path3985"
           sodipodi:cx="-89.48819"
           sodipodi:cy="58.104801"
           sodipodi:rx="12.232929"
           sodipodi:ry="8.3752422"
           d="m -77.25526,58.104801 c 0,4.625519 -5.476869,8.375242 -12.23293,8.375242 -6.75606,0 -12.23293,-3.749723 -12.23293,-8.375242 0,-4.625518 5.47687,-8.375242 12.23293,-8.375242 6.756061,0 12.23293,3.749724 12.23293,8.375242 z"
           transform="matrix(0.11505824,-0.11505824,0.16805475,0.16805475,-96.744038,955.99124)"
           inkscape:transform-center-x="-4.8454314"
           inkscape:transform-center-y="-4.9889986" />
        <path
           sodipodi:type="arc"
           style="fill:#999999;fill-opacity:1;stroke:none"
           id="path3987"
           sodipodi:cx="-89.48819"
           sodipodi:cy="58.104801"
           sodipodi:rx="12.232929"
           sodipodi:ry="8.3752422"
           d="m -77.25526,58.104801 c 0,4.625519 -5.476869,8.375242 -12.23293,8.375242 -6.75606,0 -12.23293,-3.749723 -12.23293,-8.375242 0,-4.625518 5.47687,-8.375242 12.23293,-8.375242 6.756061,0 12.23293,3.749724 12.23293,8.375242 z"
           transform="matrix(0.11505824,-0.11505824,0.16805475,0.16805475,-106.4349,965.96923)"
           inkscape:transform-center-x="4.8454286"
           inkscape:transform-center-y="4.9889914" />
        <path
           transform="matrix(0.11505824,-0.11505824,0.16805475,0.16805475,-96.815818,965.82567)"
           d="m -77.25526,58.104801 c 0,4.625519 -5.476869,8.375242 -12.23293,8.375242 -6.75606,0 -12.23293,-3.749723 -12.23293,-8.375242 0,-4.625518 5.47687,-8.375242 12.23293,-8.375242 6.756061,0 12.23293,3.749724 12.23293,8.375242 z"
           sodipodi:ry="8.3752422"
           sodipodi:rx="12.232929"
           sodipodi:cy="58.104801"
           sodipodi:cx="-89.48819"
           id="path3989"
           style="fill:#999999;fill-opacity:1;stroke:none"
           sodipodi:type="arc"
           inkscape:transform-center-x="-4.7736514"
           inkscape:transform-center-y="4.8454314" />
      </g>
      <path
         sodipodi:nodetypes="ccccccccc"
         inkscape:connector-curvature="0"
         id="rect4066"
         d="m -101.35786,997.35205 21.524364,-14.5329 2.583915,3.71587 10.422102,-16.65256 7.206073,22.63854 -12.460349,1.44575 2.583915,3.71587 -21.524367,14.53288 z"
         style="color:#000000;fill:#000000;fill-opacity:1;fill-rule:nonzero;stroke:none;stroke-width:1.06344366;marker:none;visibility:visible;display:inline;overflow:visible;enable-background:accumulate" />
    </g>
    <path
       style="fill:#000000;fill-opacity:1;stroke:none"
       d="M 113.90625 3.375 L 113.90625 17.15625 L 122.375 17.15625 L 122.375 3.375 L 113.90625 3.375 z M 113.90625 21.15625 L 113.90625 34.9375 L 122.375 34.9375 L 122.375 21.15625 L 113.90625 21.15625 z M 113.90625 38.9375 L 113.90625 52.71875 L 122.375 52.71875 L 122.375 38.9375 L 113.90625 38.9375 z M 113.90625 56.71875 L 113.90625 70.5 L 122.375 70.5 L 122.375 56.71875 L 113.90625 56.71875 z M 113.90625 74.5 L 113.90625 88.28125 L 122.375 88.28125 L 122.375 74.5 L 113.90625 74.5 z M 113.90625 92.28125 L 113.90625 106.0625 L 122.375 106.0625 L 122.375 92.28125 L 113.90625 92.28125 z "
       transform="translate(0,924.3621)"
       id="rect4088" />
    <path
       style="fill:#666666;fill-opacity:1;stroke:none"
       d="m 113.90625,927.7371 0,13.78125 8.46875,0 0,-13.78125 -8.46875,0 z"
       id="path4122" />
    <path
       style="fill:#666666;fill-opacity:1;stroke:none"
       d="m 113.90625,945.51835 0,13.78125 8.46875,0 0,-13.78125 -8.46875,0 z"
       id="path4120" />
    <path
       style="fill:#666666;fill-opacity:1;stroke:none"
       d="m 113.90625,963.2996 0,13.78125 8.46875,0 0,-13.78125 -8.46875,0 z"
       id="path4118" />
    <path
       style="fill:#666666;fill-opacity:1;stroke:none"
       d="m 113.90625,981.08085 0,13.78125 8.46875,0 0,-13.78125 -8.46875,0 z"
       id="path4116" />
    <path
       style="fill:#666666;fill-opacity:1;stroke:none"
       d="m 113.90625,998.8621 0,13.7813 8.46875,0 0,-13.7813 -8.46875,0 z"
       id="path4114" />
    <path
       style="fill:#666666;fill-opacity:1;stroke:none"
       d="m 113.90625,1016.6434 0,13.7812 8.46875,0 0,-13.7812 -8.46875,0 z"
       id="path4112" />
    <path
       style="fill:#0000ff;fill-opacity:1;stroke:none"
       d="m 108.375,1033.5496 9.75,15.8438 9.75,-15.8438 -19.5,0 z"
       id="rect4100" />
    <path
       style="fill:#333333;fill-opacity:1;stroke:none"
       d="m 7.6550384,1049.3934 0,-13.7812 8.4687496,0 0,13.7812 -8.4687496,0 z"
       id="path4136" />
    <path
       style="fill:#333333;fill-opacity:1;stroke:none"
       d="m 7.6550384,1031.6122 0,-13.7813 8.4687496,0 0,13.7813 -8.4687496,0 z"
       id="path4134" />
    <path
       style="fill:#333333;fill-opacity:1;stroke:none"
       d="m 7.6550384,1013.8309 0,-13.7812 8.4687496,0 0,13.7812 -8.4687496,0 z"
       id="path4132" />
    <path
       style="fill:#333333;fill-opacity:1;stroke:none"
       d="m 7.6550384,996.04965 0,-13.78125 8.4687496,0 0,13.78125 -8.4687496,0 z"
       id="path4130" />
    <path
       style="fill:#333333;fill-opacity:1;stroke:none"
       d="m 7.6550384,978.2684 0,-13.7813 8.4687496,0 0,13.7813 -8.4687496,0 z"
       id="path4128" />
    <path
       style="fill:#333333;fill-opacity:1;stroke:none"
       d="m 7.6550384,960.4871 0,-13.7812 8.4687496,0 0,13.7812 -8.4687496,0 z"
       id="path4126" />
    <path
       style="fill:#ff0000;fill-opacity:1;stroke:none"
       d="m 2.1237884,943.5809 9.7499996,-15.8438 9.75,15.8438 -19.4999996,0 z"
       id="path4108" />
  </g>
</svg>
